<?xml version="1.0" encoding="UTF-8"?><svg id="Layer_2" xmlns="http://www.w3.org/2000/svg" viewBox="0 0 358.19 109.09"><defs><style>.cls-1{fill:#fff;}</style></defs><g id="Layer_1-2"><g><path class="cls-1" d="M354.19,4V86.25h-116.29V4h116.29m4-4h-124.29V90.25h124.29V0h0Z"/><rect class="cls-1" y="105.28" width="357.79" height="3.81"/><g><path class="cls-1" d="M71.74,90.28l-8.39-23.09H18.61l-8.27,23.09H.25L32.95,.03h16.05l32.83,90.25h-10.09ZM42.56,9.59h-3.16L21.89,58.25H60.19L42.56,9.59Z"/><path class="cls-1" d="M90.71,90.28V.03h9.85V90.28h-9.85Z"/><path class="cls-1" d="M201.71,90.28V8.48l-30.52,81.81h-12.04L128.64,8.48V90.28h-9.72V.03h16.05l30.27,80.44L195.26,.03h16.17V90.28h-9.72Z"/></g><g><path class="cls-1" d="M250.57,59.03v-26.78h23.29v5.49h-16.72v4.45h14.9v5.49h-14.9v5.86h16.72v5.48h-23.29Z"/><path class="cls-1" d="M298.39,59.03l-13.22-19.07v19.07h-6.28v-26.78h8.07l13.11,18.88v-18.88h6.32v26.78h-8Z"/><path class="cls-1" d="M334.92,41.52c-1.2-3.01-3.71-4.49-7.59-4.49-5.23,0-8.51,3.27-8.51,8.61s3.27,8.57,8.51,8.57c3.67,0,6.5-1.71,7.7-4.34h-5.97v-5.49h12.94v14.65h-4.98l-.36-3c-2.51,2.49-5.67,3.71-9.7,3.71s-7.92-1.3-10.47-3.34c-3.34-2.67-4.9-6.19-4.9-10.76,0-8.49,6.07-14.1,15.73-14.1,8.32,0,13.99,4.19,14.75,9.98h-7.16Z"/></g></g></g></svg>