<svg width="25" height="22" viewBox="0 0 25 22" fill="none" xmlns="http://www.w3.org/2000/svg">
<path d="M22.8783 20.4404C22.378 20.9332 21.8535 21.4493 21.294 22C20.3163 21.0063 19.3035 19.9781 18.2917 18.9499C18.1503 18.8056 17.9879 18.6776 17.8705 18.516C17.6008 18.1432 17.31 18.1279 16.8828 18.2773C10.2395 20.6101 2.9323 17.3557 0.111513 10.839C-0.0449189 10.4783 -0.031883 10.1887 0.124549 9.83513C0.97991 7.90265 2.20429 6.25872 3.79869 4.89318C3.8749 4.82815 3.95412 4.76516 4.02732 4.69607C4.04938 4.67473 4.0574 4.63816 4.08348 4.58532C3.09074 3.57743 2.09298 2.56343 1.09924 1.5535L2.68562 0C9.39514 6.79213 16.1387 13.6178 22.8783 20.4404ZM15.6544 16.2615C15.3135 15.9364 15.0187 15.6905 14.77 15.404C14.5644 15.1672 14.3819 15.1398 14.0831 15.2251C13.5897 15.3664 13.0743 15.4903 12.5659 15.5005C9.00606 15.5686 6.49714 12.0846 7.61222 8.66162C7.66235 8.5082 7.70046 8.25622 7.61823 8.16681C7.02058 7.51351 6.39185 6.89068 5.77314 6.25872C4.4535 7.28084 3.43769 8.47365 2.65152 9.87577C2.46501 10.208 2.44896 10.46 2.63849 10.8024C4.13261 13.4928 6.32466 15.3095 9.23168 16.2208C11.3194 16.8752 13.4222 16.8742 15.6554 16.2605L15.6544 16.2615Z" fill="#C1C1C1"/>
<path d="M21.4893 15.5706C20.9548 15.0036 20.4384 14.457 19.9099 13.8962C20.8686 13.0315 21.7049 11.9911 22.3587 10.7953C22.5332 10.4762 22.5362 10.2334 22.3647 9.91234C20.0864 5.63081 15.4035 3.33764 10.5872 4.14538C10.3987 4.17688 10.131 4.10169 9.98857 3.97571C9.42702 3.47481 8.90156 2.93327 8.36208 2.40595L8.39818 2.23526C9.30769 2.06253 10.2112 1.82783 11.1287 1.72623C16.9518 1.08003 22.6305 4.45832 24.9258 9.92352C25.0211 10.1511 25.0241 10.4894 24.9308 10.7181C24.1617 12.6068 23.0005 14.2162 21.4883 15.5716L21.4893 15.5706Z" fill="#C1C1C1"/>
<path d="M11.4205 5.25793C13.2596 4.89013 14.9061 5.33007 16.2589 6.73727C17.4903 8.01847 17.9987 10.0861 17.4993 11.4242C15.4897 9.38605 13.4571 7.32351 11.4205 5.25793Z" fill="#C1C1C1"/>
</svg>
