<svg width="54" height="52" viewBox="0 0 54 52" fill="none" xmlns="http://www.w3.org/2000/svg">
<path opacity="0.5" d="M1.56963 19.6842C2.14598 19.9051 2.92281 19.6597 3.19845 18.8988C7.15773 7.7068 16.8555 2.28259 26.6534 2.28259C31.3645 2.28259 34.9479 3.31343 37.7545 5.00696C38.431 5.42421 39.2329 5.35058 39.5086 4.68789C39.8343 3.97612 39.4585 3.53433 38.9072 3.19071C35.4992 1.05539 31.6401 0 26.6534 0C15.7028 0 5.40362 5.81692 0.968224 17.7944C0.617401 18.7516 0.968224 19.4388 1.56963 19.6842ZM52.915 28.201C53.5665 28.201 54.0677 27.661 53.9925 26.9492C52.9902 17.4998 49.4819 10.9221 43.8688 6.23416C43.2924 5.74328 42.5657 5.81691 42.1899 6.23416C41.7639 6.65141 41.7388 7.36318 42.3402 7.87861C47.4271 12.4192 50.9354 18.3343 51.7623 26.9983C51.8124 27.661 52.2384 28.201 52.915 28.201ZM5.65421 41.1356C6.03009 41.6756 6.83197 41.7983 7.40832 41.3075C9.16243 39.8839 10.0395 37.5031 10.0144 35.196C9.98937 31.7599 8.51091 30.14 8.51091 25.7711C8.51091 16.3217 16.6801 8.3204 26.3527 8.3204C38.431 8.3204 45.9487 17.8189 45.9988 31.6371C46.0238 36.7668 45.1969 40.7184 44.1444 43.3446C43.8688 44.0073 44.1444 44.67 44.6957 44.9154C45.247 45.1609 46.0238 44.9645 46.2744 44.2773C47.352 41.332 48.3042 37.0368 48.3042 31.6126C48.3042 16.5181 39.8343 6.0869 26.3527 6.0869C15.4021 6.0869 6.2055 15.0945 6.2055 25.7711C6.2055 29.8454 7.75914 32.5944 7.7842 35.196C7.7842 36.8405 7.10762 38.4849 5.9048 39.5158C5.40362 39.933 5.32844 40.6448 5.65421 41.1356ZM16.4044 32.8153C15.7028 31.0235 14.7255 28.741 14.7255 26.0902C14.7255 19.3406 19.7873 14.3828 26.6534 14.3828C29.1343 14.3828 30.4373 14.8 32.4921 15.9045C33.1437 16.2235 33.7451 16.0272 33.9956 15.5854C34.2964 15.07 34.2212 14.3582 33.4193 13.8919C31.6401 12.8119 29.1593 12.1247 26.6534 12.1247C18.5093 12.1247 12.4201 18.0889 12.4201 26.0902C12.4201 28.7655 13.1718 31.269 14.1742 33.6743C14.4749 34.3615 15.1014 34.656 15.803 34.3861C16.4044 34.1406 16.655 33.4779 16.4044 32.8153ZM36.2509 19.0952C38.6566 22.5313 39.8343 27.4647 39.8343 33.0607C39.8343 39.0249 38.1805 44.7682 35.3989 48.327C35.0231 48.8179 34.9479 49.5297 35.3989 49.9715C35.875 50.4378 36.7521 50.4378 37.1781 49.8978C40.2603 45.799 42.1147 39.4912 42.1147 32.9871C42.1147 26.2375 40.6112 21.5005 38.3057 17.9171C37.8547 17.2053 37.128 17.058 36.5767 17.3526C35.9753 17.6716 35.7999 18.408 36.2509 19.0952ZM16.3543 48.7688C20.3386 45.6272 22.5438 40.6202 22.5187 35.0242C22.4686 30.8272 20.94 28.201 20.94 25.7957C20.94 22.605 23.2454 20.4696 26.5281 20.4696C31.4397 20.4696 33.3692 25.5993 33.4694 32.7416C33.6198 40.4484 30.7881 46.7562 27.0794 50.0206C26.6033 50.4378 26.5031 51.0514 26.8539 51.5423C27.2298 52.0577 28.0317 52.1804 28.583 51.6895C32.5422 48.1552 35.6746 40.7184 35.6495 32.5944C35.6245 24.1267 33.0434 18.2362 26.5281 18.2362C22.0677 18.2362 18.6848 21.1814 18.6848 25.6239C18.6848 28.2746 20.1632 31.6126 20.2133 35.0242C20.2384 39.933 18.3339 44.2527 14.9259 46.9771C14.3245 47.4434 14.2744 48.1061 14.6252 48.597C15.0262 49.1615 15.7779 49.2597 16.3543 48.7688ZM2.49681 34.0424C3.09822 33.8461 3.42398 33.257 3.22351 32.5207C2.57198 30.14 2.27128 27.1456 2.34645 23.8567C2.34645 23.1449 1.94551 22.7277 1.31905 22.7031C0.517166 22.6541 0.0911677 23.1449 0.0410502 23.7585C-0.109302 26.5811 0.141285 30.0909 0.993282 33.1589C1.21881 33.8952 1.87034 34.2143 2.49681 34.0424ZM28.8837 37.5522C29.6104 34.4106 29.2846 29.9927 28.0066 26.532C27.7059 25.7221 27.1045 25.4766 26.453 25.673C25.8516 25.8693 25.5007 26.4584 25.7263 27.1456C26.9792 30.5081 27.2548 34.3124 26.6033 37.2577C26.478 37.8713 26.7286 38.4358 27.4303 38.5585C28.1068 38.6813 28.7083 38.2886 28.8837 37.5522ZM11.1671 45.5781C12.9964 44.6454 15.5274 41.5038 16.1789 38.9267C16.3543 38.3131 16.0285 37.6749 15.4021 37.4786C14.8257 37.3068 14.2243 37.6259 13.9988 38.2886C13.3222 40.6448 11.9189 42.3383 10.1147 43.541C9.3629 44.0564 9.28773 44.7191 9.53831 45.1854C9.7889 45.6763 10.4404 45.9463 11.1671 45.5781ZM22.0426 50.7323C24.0223 49.3088 26.3026 46.4371 27.4804 42.9519C27.6307 42.4119 27.5054 41.7002 26.8539 41.5038C26.2024 41.2829 25.5759 41.5774 25.3754 42.1419C24.0223 45.6272 22.3684 47.6398 20.6393 48.9161C20.1131 49.3088 19.9628 49.996 20.3136 50.5114C20.6644 51.1005 21.4412 51.1741 22.0426 50.7323Z" fill="#A6233B"/>
</svg>
